<svg xmlns="http://www.w3.org/2000/svg" width="16" height="16" viewBox="0 0 16 16" fill="none">
  <g clip-path="url(#clip0_249_873)">
    <path d="M8.62687 8L12.3113 4.31556C12.3841 4.23054 12.4222 4.12117 12.4179 4.00931C12.4135 3.89746 12.3672 3.79135 12.288 3.7122C12.2089 3.63305 12.1028 3.58668 11.9909 3.58235C11.879 3.57803 11.7697 3.61608 11.6847 3.68889L8.00021 7.37334L4.31576 3.68445C4.23207 3.60076 4.11856 3.55374 4.00021 3.55374C3.88185 3.55374 3.76834 3.60076 3.68465 3.68445C3.60096 3.76814 3.55394 3.88165 3.55394 4C3.55394 4.11836 3.60096 4.23187 3.68465 4.31556L7.37354 8L3.68465 11.6844C3.63812 11.7243 3.60034 11.7733 3.57366 11.8285C3.54698 11.8836 3.53199 11.9437 3.52963 12.0049C3.52726 12.0661 3.53758 12.1271 3.55992 12.1841C3.58227 12.2412 3.61616 12.293 3.65947 12.3363C3.70278 12.3796 3.75458 12.4135 3.81162 12.4358C3.86865 12.4582 3.92969 12.4685 3.9909 12.4661C4.0521 12.4638 4.11216 12.4488 4.1673 12.4221C4.22244 12.3954 4.27147 12.3576 4.31132 12.3111L8.00021 8.62667L11.6847 12.3111C11.7697 12.3839 11.879 12.422 11.9909 12.4177C12.1028 12.4133 12.2089 12.367 12.288 12.2878C12.3672 12.2087 12.4135 12.1026 12.4179 11.9907C12.4222 11.8788 12.3841 11.7695 12.3113 11.6844L8.62687 8Z" fill="#fff"/>
  </g>
  <defs>
    <clipPath id="clip0_249_873">
      <rect width="16" height="16" fill="white"/>
    </clipPath>
  </defs>
</svg>