<svg xmlns="http://www.w3.org/2000/svg" width="24" height="24" viewBox="0 0 24 24" fill="none">
  <path d="M12 22C10.0222 22 8.08879 21.4135 6.4443 20.3147C4.79981 19.2159 3.51809 17.6541 2.76121 15.8268C2.00433 13.9996 1.8063 11.9889 2.19215 10.0491C2.578 8.10928 3.53041 6.32745 4.92894 4.92893C6.32746 3.5304 8.10929 2.578 10.0491 2.19214C11.9889 1.80629 13.9996 2.00433 15.8268 2.7612C17.6541 3.51808 19.2159 4.7998 20.3147 6.44429C21.4135 8.08879 22 10.0222 22 12C22 14.6522 20.9464 17.1957 19.0711 19.0711C17.1957 20.9464 14.6522 22 12 22ZM12 3.66666C10.3518 3.66666 8.74066 4.1554 7.37025 5.07108C5.99984 5.98676 4.93174 7.28825 4.30101 8.81097C3.67028 10.3337 3.50525 12.0092 3.82679 13.6257C4.14834 15.2423 4.94201 16.7271 6.10745 17.8926C7.27288 19.058 8.75774 19.8517 10.3743 20.1732C11.9908 20.4947 13.6663 20.3297 15.189 19.699C16.7117 19.0683 18.0132 18.0002 18.9289 16.6297C19.8446 15.2593 20.3333 13.6482 20.3333 12C20.3333 9.78986 19.4554 7.67024 17.8926 6.10744C16.3298 4.54464 14.2101 3.66666 12 3.66666Z" fill="#FCB900"/>
  <path d="M12 13.25C11.7359 13.2468 11.4835 13.147 11.2967 12.9718C11.1099 12.7967 11.0035 12.5601 11 12.3125V7.9375C11 7.68886 11.1054 7.4504 11.2929 7.27459C11.4804 7.09877 11.7348 7 12 7C12.2652 7 12.5196 7.09877 12.7071 7.27459C12.8946 7.4504 13 7.68886 13 7.9375V12.3125C12.9965 12.5601 12.8901 12.7967 12.7033 12.9718C12.5165 13.147 12.2641 13.2468 12 13.25ZM12 17C11.7359 16.9968 11.4835 16.897 11.2967 16.7218C11.1099 16.5467 11.0035 16.3101 11 16.0625V15.4375C11 15.1889 11.1054 14.9504 11.2929 14.7746C11.4804 14.5988 11.7348 14.5 12 14.5C12.2652 14.5 12.5196 14.5988 12.7071 14.7746C12.8946 14.9504 13 15.1889 13 15.4375V16.0625C12.9965 16.3101 12.8901 16.5467 12.7033 16.7218C12.5165 16.897 12.2641 16.9968 12 17Z" fill="#FCB900"/>
</svg>