<svg xmlns="http://www.w3.org/2000/svg" width="20" height="22" viewBox="0 0 20 22" fill="none">
  <path fill-rule="evenodd" clip-rule="evenodd" d="M2.82051 1.53488C2.48049 1.53488 2.1544 1.66964 1.91397 1.90951C1.67353 2.14939 1.53846 2.47472 1.53846 2.81395L1.53846 19.186C1.53846 19.5253 1.67353 19.8506 1.91397 20.0905C2.1544 20.3304 2.48049 20.4651 2.82051 20.4651H17.1795C17.5195 20.4651 17.8456 20.3304 18.086 20.0905C18.3265 19.8506 18.4615 19.5253 18.4615 19.186V2.81395C18.4615 2.47472 18.3265 2.14939 18.086 1.90951C17.8456 1.66964 17.5195 1.53488 17.1795 1.53488L2.82051 1.53488ZM0.826109 0.824188C1.35506 0.296469 2.07247 0 2.82051 0L17.1795 0C17.9275 0 18.6449 0.296469 19.1739 0.824188C19.7028 1.35191 20 2.06765 20 2.81395V19.186C20 19.9324 19.7028 20.6481 19.1739 21.1758C18.6449 21.7035 17.9275 22 17.1795 22H2.82051C2.07247 22 1.35506 21.7035 0.826109 21.1758C0.29716 20.6481 0 19.9324 0 19.186L0 2.81395C0 2.06765 0.29716 1.35191 0.826109 0.824188ZM16.6815 3.26833C16.9959 3.55344 17.0191 4.03881 16.7333 4.35243L16.723 4.36368C16.4373 4.6773 15.9508 4.70041 15.6364 4.4153C15.3221 4.13019 15.2989 3.64482 15.5847 3.3312L15.5949 3.31995C15.8807 3.00633 16.3672 2.98322 16.6815 3.26833Z" fill="#212839"/>
  <path fill-rule="evenodd" clip-rule="evenodd" d="M5.10487 7.13922C6.4032 5.84391 8.16411 5.11621 10.0002 5.11621C11.8363 5.11621 13.5973 5.84391 14.8956 7.13922C16.1939 8.43453 16.9233 10.1913 16.9233 12.0232C16.9233 13.855 16.1939 15.6118 14.8956 16.9072C13.5973 18.2025 11.8363 18.9302 10.0002 18.9302C8.16411 18.9302 6.4032 18.2025 5.10487 16.9072C3.80654 15.6118 3.07715 13.855 3.07715 12.0232C3.07715 10.1913 3.80654 8.43453 5.10487 7.13922ZM10.0002 17.3953C11.4283 17.3953 12.7979 16.8293 13.8077 15.8218C14.8175 14.8144 15.3848 13.448 15.3848 12.0232C15.3848 10.5984 14.8175 9.23201 13.8077 8.22454C12.7979 7.21708 11.4283 6.65109 10.0002 6.65109C8.57214 6.65109 7.20254 7.21708 6.19273 8.22454C5.18292 9.23201 4.61561 10.5984 4.61561 12.0232C4.61561 13.448 5.18292 14.8144 6.19273 15.8218C7.20254 16.8293 8.57214 17.3953 10.0002 17.3953Z" fill="#212839"/>
</svg>