<svg xmlns="http://www.w3.org/2000/svg" width="24" height="24" viewBox="0 0 24 24" fill="#212839">
  <path d="M12 5.71447C11.1909 5.71447 10.4 5.94488 9.72721 6.37658C9.05447 6.80827 8.53012 7.42185 8.22049 8.13974C7.91086 8.85762 7.82985 9.64755 7.9877 10.4096C8.14555 11.1717 8.53517 11.8718 9.10729 12.4212C9.67941 12.9707 10.4083 13.3448 11.2019 13.4964C11.9955 13.648 12.818 13.5702 13.5655 13.2729C14.313 12.9755 14.952 12.4719 15.4015 11.8259C15.851 11.1798 16.0909 10.4202 16.0909 9.64319C16.0882 8.60203 15.6563 7.60425 14.8897 6.86803C14.1231 6.13181 13.0841 5.71706 12 5.71447ZM12 12.0004C11.5145 12.0004 11.04 11.8622 10.6363 11.6032C10.2327 11.3441 9.91807 10.976 9.7323 10.5453C9.54652 10.1145 9.49791 9.64058 9.59262 9.18332C9.68733 8.72606 9.9211 8.30604 10.2644 7.97638C10.6076 7.64671 11.045 7.42221 11.5211 7.33125C11.9973 7.2403 12.4908 7.28698 12.9393 7.46539C13.3878 7.64381 13.7712 7.94594 14.0409 8.33358C14.3106 8.72123 14.4545 9.17698 14.4545 9.64319C14.4519 10.2676 14.1924 10.8656 13.7327 11.3072C13.2729 11.7487 12.6502 11.9978 12 12.0004ZM12 1C9.61388 1.0026 7.32627 1.91405 5.63903 3.5344C3.95179 5.15475 3.00271 7.35167 3 9.64319C3 12.7272 4.48295 15.9979 7.29545 19.0918C8.55971 20.4932 9.97948 21.7579 11.5295 22.8633C11.6689 22.9525 11.8326 23 12 23C12.1674 23 12.3311 22.9525 12.4705 22.8633C14.025 21.7595 15.4484 20.4947 16.7148 19.0918C19.517 15.9979 21 12.7272 21 9.64319C20.9973 7.35167 20.0482 5.15475 18.361 3.5344C16.6737 1.91405 14.3861 1.0026 12 1ZM12 21.2329C10.3125 19.9561 4.63636 15.2613 4.63636 9.64319C4.63636 7.76766 5.41217 5.96895 6.79312 4.64274C8.17407 3.31654 10.047 2.57149 12 2.57149C13.953 2.57149 15.8259 3.31654 17.2069 4.64274C18.5878 5.96895 19.3636 7.76766 19.3636 9.64319C19.3636 15.2613 13.6875 19.9561 12 21.2329Z" />
</svg>