<svg width="20" height="24" viewBox="0 0 20 24" fill="none" xmlns="http://www.w3.org/2000/svg">
<path d="M6.10551 10.1183C6.7177 10.1183 7.39528 10.0391 8.14529 9.85676C8.25521 9.83004 8.35248 9.76512 8.41927 9.67371C8.47248 9.60105 9.71748 7.86878 9.20115 5.93705C8.85217 4.6318 7.80146 3.5832 6.07785 2.82031C5.22004 2.44085 1.09759 1.76023 0.630243 1.68382C0.412273 1.64843 0.196646 1.76679 0.11063 1.97116C-0.175777 2.65086 -0.00796318 6.04673 1.84736 8.22643C2.63768 9.1548 3.97245 10.1183 6.10551 10.1183ZM7.7356 8.96659C5.59246 9.44379 3.90589 9.03878 2.71947 7.76284C1.26798 6.20119 0.936808 3.70649 0.957901 2.71132C2.73705 3.01133 5.17292 3.46977 5.68926 3.69828C7.13091 4.33626 7.99974 5.17064 8.27185 6.17822C8.59951 7.39112 7.97888 8.56886 7.7356 8.96659ZM13.5512 8.44065C15.6845 8.44065 17.019 7.47713 17.8093 6.54877C19.6647 4.36907 19.8325 0.97319 19.5461 0.293498C19.46 0.0891219 19.2437 -0.0290038 19.0264 0.00615266C18.5591 0.0825594 14.4367 0.763188 13.5788 1.14264C11.8552 1.90554 10.8045 2.95414 10.4555 4.25938C9.9392 6.19111 11.1842 7.92339 11.2374 7.99604C11.3042 8.08745 11.4015 8.15237 11.5114 8.17909C12.2612 8.36143 12.939 8.44065 13.5512 8.44065ZM18.7007 1.03342C18.7211 2.01921 18.3915 4.52048 16.9372 6.08517C15.751 7.36135 14.0649 7.76589 11.9211 7.28893C11.6778 6.89119 11.0572 5.71345 11.3848 4.50055C11.6569 3.49297 12.5258 2.65859 13.9674 2.02062C14.484 1.79187 16.9215 1.33343 18.7007 1.03342ZM4.56238 17.8928H15.0943C16.415 17.8928 17.4896 16.8182 17.4896 15.4975C17.4896 14.1768 16.415 13.1022 15.0943 13.1022H4.56238C3.24166 13.1022 2.16705 14.1768 2.16705 15.4975C2.16705 16.8182 3.24166 17.8928 4.56238 17.8928ZM15.0943 14.0622C15.8858 14.0622 16.5296 14.706 16.5296 15.4975C16.5296 16.289 15.8858 16.9328 15.0943 16.9328H4.56238C3.77089 16.9328 3.12705 16.289 3.12705 15.4975C3.12705 14.706 3.77089 14.0622 4.56238 14.0622H15.0943Z" fill="#1D2F15"/>
<path d="M5.39886 24.0001H14.2578C14.4873 24.0001 14.6846 23.8377 14.7289 23.6124L15.9266 17.5053C15.9542 17.3644 15.9172 17.2187 15.826 17.108C15.7349 16.9972 15.5989 16.933 15.4555 16.933H4.20119C4.05775 16.933 3.92182 16.9972 3.83064 17.108C3.73947 17.2187 3.70244 17.3644 3.7301 17.5053L4.92776 23.6124C4.97206 23.8377 5.1694 24.0001 5.39886 24.0001ZM13.8629 23.0401H5.79378L4.78455 17.893H14.8721L13.8629 23.0401ZM9.82833 12.2658C10.0934 12.2658 10.3083 12.0509 10.3083 11.7858C10.3083 9.84752 6.15777 6.63633 5.32573 6.01242C5.11292 5.85328 4.81221 5.89687 4.65377 6.10828C4.49463 6.32039 4.53752 6.62133 4.74963 6.78024C6.52761 8.11431 9.34833 10.6528 9.34833 11.7858C9.34833 12.0509 9.56325 12.2658 9.82833 12.2658Z" fill="#1D2F15"/>
<path d="M9.82814 14.0621C10.0932 14.0621 10.3081 13.8471 10.3081 13.5821V11.3056C10.3081 9.52384 13.213 6.64171 14.3324 5.68171C14.5337 5.50897 14.5569 5.20616 14.3844 5.00483C14.211 4.8035 13.9086 4.78077 13.7075 4.9528C13.2613 5.3353 9.34813 8.76282 9.34813 11.3056V13.5821C9.34813 13.8471 9.56306 14.0621 9.82814 14.0621Z" fill="#1D2F15"/>
</svg>
