<svg xmlns="http://www.w3.org/2000/svg" width="20" height="20" viewBox="0 0 20 20" fill="none">
  <path fill-rule="evenodd" clip-rule="evenodd" d="M12.3635 2.52019C11.1962 1.74157 9.82422 1.32665 8.42105 1.32794C6.54359 1.33816 4.74603 2.08895 3.41905 3.41714C2.09208 4.74534 1.34292 6.54358 1.33442 8.42105C1.33442 9.82421 1.75058 11.1959 2.53027 12.3624C3.30996 13.529 4.41814 14.4382 5.71461 14.9749C7.01109 15.5115 8.43761 15.6516 9.81371 15.3774C11.1898 15.1032 12.4537 14.427 13.4454 13.4343C14.4371 12.4417 15.1122 11.1772 15.3851 9.80087C15.6581 8.42452 15.5167 6.99813 14.9789 5.70214C14.441 4.40616 13.5309 3.29881 12.3635 2.52019ZM3.74257 1.4192C5.1274 0.493886 6.75553 0 8.42105 0C10.6545 0 12.7964 0.887215 14.3756 2.46647C15.9549 4.04572 16.8421 6.18765 16.8421 8.42105C16.8421 10.0866 16.3482 11.7147 15.4229 13.0995C15.2213 13.4013 15.0012 13.6885 14.7643 13.9598L19.8362 18.9486C19.8883 19.0061 19.9296 19.0743 19.9577 19.1492C19.9858 19.2241 20.0001 19.3044 19.9999 19.3854C19.9996 19.4664 19.9848 19.5465 19.9562 19.6213C19.9276 19.696 19.8859 19.7638 19.8334 19.8209C19.7808 19.878 19.7185 19.9231 19.65 19.9539C19.5815 19.9846 19.5082 20.0003 19.4342 20C19.3601 19.9997 19.2869 19.9835 19.2186 19.9522C19.1503 19.921 19.0883 19.8753 19.0362 19.8178L13.9272 14.7926C13.2498 15.378 12.4797 15.8548 11.6437 16.2011C10.1049 16.8385 8.41171 17.0052 6.77819 16.6803C5.14467 16.3554 3.64418 15.5533 2.46647 14.3756C1.28877 13.1979 0.48674 11.6974 0.161812 10.0639C-0.163116 8.43039 0.00364883 6.7372 0.641018 5.19845C1.27839 3.65971 2.35773 2.34452 3.74257 1.4192Z" fill="#212839"/>
</svg>