<svg xmlns="http://www.w3.org/2000/svg" width="24" height="24" viewBox="0 0 24 24" fill="none">
  <path d="M5.41016 20.9597C5.25139 20.9042 5.12442 20.796 5.05715 20.659C4.98988 20.5219 4.98783 20.3672 5.05144 20.2289L5.95857 18.2534C6.14309 17.8514 6.14309 17.4029 5.95857 17.0009L5.43468 15.8608C5.12703 15.1907 5.12703 14.4431 5.43468 13.773L5.95857 12.6318C6.14309 12.2297 6.14309 11.7813 5.95857 11.3792L5.43468 10.2392C5.12703 9.56903 5.12703 8.82144 5.43468 8.15129L5.95857 7.0101C6.14309 6.60807 6.14309 6.15961 5.95857 5.75759L5.05144 3.78214C5.01785 3.71329 5.00036 3.6393 5.00001 3.5645C4.99965 3.48969 5.01643 3.41557 5.04937 3.34649C5.08231 3.2774 5.13074 3.21474 5.19183 3.16218C5.25292 3.10961 5.32543 3.0682 5.40512 3.04037C5.48481 3.01253 5.57008 2.99883 5.65592 3.00008C5.74176 3.00133 5.82646 3.01748 5.90504 3.04762C5.98362 3.07775 6.05451 3.12124 6.11356 3.17555C6.1726 3.22986 6.21861 3.29389 6.2489 3.36389L7.15602 5.34046C7.46367 6.01061 7.46367 6.7582 7.15602 7.42835L6.63213 8.56842C6.44761 8.97044 6.44761 9.4189 6.63213 9.82092L7.15602 10.9621C7.46367 11.6323 7.46367 12.3799 7.15602 13.05L6.63213 14.1901C6.44761 14.5921 6.44761 15.0406 6.63213 15.4426L7.15602 16.5838C7.46367 17.2539 7.46367 18.0015 7.15602 18.6717L6.2489 20.6471C6.18521 20.7855 6.06108 20.8961 5.9038 20.9547C5.74652 21.0133 5.56896 21.0151 5.41016 20.9597ZM9.28124 20.9597C9.12248 20.9042 8.9955 20.796 8.92823 20.659C8.86096 20.5219 8.85891 20.3672 8.92252 20.2289L9.82965 18.2534C10.0142 17.8514 10.0142 17.4029 9.82965 17.0009L9.30576 15.8608C8.99811 15.1907 8.99811 14.4431 9.30576 13.773L9.82965 12.6318C10.0142 12.2297 10.0142 11.7813 9.82965 11.3792L9.30576 10.2392C8.99811 9.56903 8.99811 8.82144 9.30576 8.15129L9.82965 7.0101C10.0142 6.60807 10.0142 6.15961 9.82965 5.75759L8.92252 3.78214C8.88893 3.71329 8.87144 3.6393 8.87109 3.5645C8.87073 3.48969 8.88751 3.41557 8.92045 3.34649C8.95339 3.2774 9.00182 3.21474 9.06291 3.16218C9.124 3.10961 9.19651 3.0682 9.2762 3.04037C9.35589 3.01253 9.44116 2.99883 9.527 3.00008C9.61284 3.00133 9.69754 3.01748 9.77612 3.04762C9.8547 3.07775 9.92559 3.12124 9.98464 3.17555C10.0437 3.22986 10.0897 3.29389 10.12 3.36389L11.0271 5.34046C11.3348 6.01061 11.3348 6.7582 11.0271 7.42835L10.5032 8.56842C10.3187 8.97044 10.3187 9.4189 10.5032 9.82092L11.0271 10.9621C11.3348 11.6323 11.3348 12.3799 11.0271 13.05L10.5032 14.1901C10.3187 14.5921 10.3187 15.0406 10.5032 15.4426L11.0271 16.5838C11.3348 17.2539 11.3348 18.0015 11.0271 18.6717L10.12 20.6471C10.0563 20.7855 9.93216 20.8961 9.77488 20.9547C9.6176 21.0133 9.44004 21.0151 9.28124 20.9597ZM13.1523 20.9597C12.9936 20.9042 12.8666 20.796 12.7993 20.659C12.732 20.5219 12.73 20.3672 12.7936 20.2289L13.7007 18.2534C13.8853 17.8514 13.8853 17.4029 13.7007 17.0009L13.1768 15.8608C12.8692 15.1907 12.8692 14.4431 13.1768 13.773L13.7007 12.6318C13.8853 12.2297 13.8853 11.7813 13.7007 11.3792L13.1768 10.2392C12.8692 9.56903 12.8692 8.82144 13.1768 8.15129L13.7007 7.0101C13.8853 6.60807 13.8853 6.15961 13.7007 5.75759L12.7936 3.78214C12.76 3.71329 12.7425 3.6393 12.7422 3.5645C12.7418 3.48969 12.7586 3.41557 12.7915 3.34649C12.8245 3.2774 12.8729 3.21474 12.934 3.16218C12.9951 3.10961 13.0676 3.0682 13.1473 3.04037C13.227 3.01253 13.3122 2.99883 13.3981 3.00008C13.4839 3.00133 13.5686 3.01748 13.6472 3.04762C13.7258 3.07775 13.7967 3.12124 13.8557 3.17555C13.9148 3.22986 13.9608 3.29389 13.9911 3.36389L14.8982 5.34046C15.2058 6.01061 15.2058 6.7582 14.8982 7.42835L14.3743 8.56842C14.1898 8.97044 14.1898 9.4189 14.3743 9.82092L14.8982 10.9621C15.2058 11.6323 15.2058 12.3799 14.8982 13.05L14.3743 14.1901C14.1898 14.5921 14.1898 15.0406 14.3743 15.4426L14.8982 16.5838C15.2058 17.2539 15.2058 18.0015 14.8982 18.6717L13.9911 20.6471C13.9274 20.7855 13.8032 20.8961 13.646 20.9547C13.4887 21.0133 13.3111 21.0151 13.1523 20.9597ZM17.0234 20.9597C16.8646 20.9042 16.7377 20.796 16.6704 20.659C16.6031 20.5219 16.6011 20.3672 16.6647 20.2289L17.5718 18.2534C17.7563 17.8514 17.7563 17.4029 17.5718 17.0009L17.0479 15.8608C16.7403 15.1907 16.7403 14.4431 17.0479 13.773L17.5718 12.6318C17.7563 12.2297 17.7563 11.7813 17.5718 11.3792L17.0479 10.2392C16.7403 9.56903 16.7403 8.82144 17.0479 8.15129L17.5718 7.0101C17.7563 6.60807 17.7563 6.15961 17.5718 5.75759L16.6647 3.78214C16.6311 3.71329 16.6136 3.6393 16.6132 3.5645C16.6129 3.48969 16.6297 3.41557 16.6626 3.34649C16.6956 3.2774 16.744 3.21474 16.8051 3.16218C16.8662 3.10961 16.9387 3.0682 17.0184 3.04037C17.0981 3.01253 17.1833 2.99883 17.2692 3.00008C17.355 3.00133 17.4397 3.01748 17.5183 3.04762C17.5969 3.07775 17.6678 3.12124 17.7268 3.17555C17.7858 3.22986 17.8319 3.29389 17.8621 3.36389L18.7693 5.34046C19.0769 6.01061 19.0769 6.7582 18.7693 7.42835L18.2454 8.56842C18.0609 8.97044 18.0609 9.4189 18.2454 9.82092L18.7693 10.9621C19.0769 11.6323 19.0769 12.3799 18.7693 13.05L18.2454 14.1901C18.0609 14.5921 18.0609 15.0406 18.2454 15.4426L18.7693 16.5838C19.0769 17.2539 19.0769 18.0015 18.7693 18.6717L17.8621 20.6471C17.7985 20.7855 17.6743 20.8961 17.517 20.9547C17.3598 21.0133 17.1822 21.0151 17.0234 20.9597Z" fill="#212839"/>
</svg>